# xmcd CD database file
#
# Track frame offsets:
#	150
#	13351
#	29252
#	45693
#	63168
#	76041
#	91791
#	106716
#	126291
#	143392
#	156067
#	169193
#
# Disc length: 2406 seconds
#
# Revision: 0
# Processed by: cddbd v1.5.2PL0 Copyright (c) Steve Scherf et al.
# Submitted via: CDex 1.70beta2
#
DISCID=8709640c
DTITLE=Detrich, Johnny - Cdn. MB - Portage La Prairie - Dreams Come and Dreams Go
DYEAR=2005
DGENRE=Country
TTITLE0=Dreams Come and Dreams Go
TTITLE1=You Hide Your Love
TTITLE2=Just An Old Memory
TTITLE3=Those Were the Days
TTITLE4=Lonely Nights
TTITLE5=Take Me Away
TTITLE6=Broken Lady
TTITLE7=Your Love Has Turned Cold
TTITLE8=A Long Time Ago
TTITLE9=Here I Go
TTITLE10=The Chicken Song( I Ain't Gonna Take it Settin' Down)
TTITLE11=Puppy Dogs and Butterflies
EXTD=YEAR: 2005
EXTT0=
EXTT1=
EXTT2=
EXTT3=
EXTT4=
EXTT5=
EXTT6=
EXTT7=
EXTT8=
EXTT9=
EXTT10=
EXTT11=
PLAYORDER=
